# AST/ASF file generated using VICON BodyLanguage
# -----------------------------------------------
:version 1.10
:name VICON
:units
  mass 1.0
  length 0.45
  angle deg
:documentation
   .ast/.asf automatically generated from VICON data using
   VICON BodyBuilder and BodyLanguage model FoxedUp or BRILLIANT.MOD
:root
   order TX TY TZ RX RY RZ
   axis XYZ
   position 0 0 0  
   orientation 0 0 0 
:bonedata
  begin
     id 1 
     name lhipjoint
     direction 0.535335 -0.74333 0.401095 
     length 2.04549 
     axis 0 0 0  XYZ
  end
  begin
     id 2 
     name lfemur
     direction 0.34202 -0.939693 0  
     length 6.95643  
     axis 0 0 20  XYZ
    dof rx ry rz
    limits (-160.0 20.0)
           (-70.0 70.0)
           (-60.0 70.0)
  end
  begin
     id 3 
     name ltibia
     direction 0.34192 -0.939729 0   
     length 5.55969   
     axis 0 0 20   XYZ
    dof rx
    limits (-10.0 170.0)
  end
  begin
     id 4 
     name lfoot
     direction 0.216943 -0.596046 0.773088   
     length 2.27918   
     axis -90 7.62852e-016 20   XYZ
    dof rx rz
    limits (-45.0 90.0)
           (-70.0 20.0)
  end
  begin
     id 5 
     name ltoes
     direction 1.53519e-011 -4.21748e-011 1   
     length 1.05562   
     axis -90 7.62852e-016 20   XYZ
    dof rx
    limits (-90.0 20.0)
  end
  begin
     id 6 
     name rhipjoint
     direction -0.576368 -0.719173 0.38806   
     length 2.1142  
     axis 0 0 0  XYZ 
  end
  begin
     id 7 
     name rfemur
     direction -0.34202 -0.939693 0   
     length 7.07928   
     axis 0 0 -20   XYZ
    dof rx ry rz
    limits (-160.0 20.0)
           (-70.0 70.0)
           (-70.0 60.0)
  end
  begin
     id 8 
     name rtibia
     direction -0.34202 -0.939693 0   
     length 5.79974   
     axis 0 0 -20   XYZ
    dof rx
    limits (-10.0 170.0)
 end
 begin
     id 9 
     name rfoot
     direction -0.189288 -0.520065 0.832888   
     length 2.42173  
     axis -90 -7.62852e-016 -20   XYZ
    dof rx rz
    limits (-45.0 90.0)
           (-20.0 70.0)
  end
  begin
     id 10 
     name rtoes
     direction -1.53574e-011 -4.21658e-011 1   
     length 1.14469   
     axis -90 -7.62852e-016 -20   XYZ
    dof rx
    limits (-90.0 20.0)
  end
  begin
     id 11 
     name lowerback
     direction -0.00135702 0.993803 0.111144   
     length 1.91308   
     axis 0 0 0   XYZ
    dof rx ry rz
    limits (-20.0 45.0)
           (-30.0 30.0)
           (-30.0 30.0)
  end
  begin
     id 12 
     name upperback
     direction -0.0056745 0.999813 0.0184631   
     length 1.9212   
     axis 0 0 0   XYZ
    dof rx ry rz
    limits (-20.0 45.0)
           (-30.0 30.0)
           (-30.0 30.0)
  end
  begin
     id 13 
     name thorax
     direction -0.00733434 0.999426 -0.0330788   
     length 1.94196   
     axis 0 0 0   XYZ
    dof rx ry rz
    limits (-20.0 45.0)
           (-30.0 30.0)
           (-30.0 30.0)
  end
  begin
     id 14 
     name lowerneck
     direction 0.0563074 0.996944 -0.0541571   
     length 2.34257   
     axis 0 0 0   XYZ
    dof rx ry rz
    limits (-20.0 45.0)
           (-30.0 30.0)
           (-30.0 30.0)
  end
  begin
     id 15 
     name upperneck
     direction -0.0544519 0.976166 -0.210085   
     length 2.32506   
     axis 0 0 0   XYZ
    dof rx ry rz
    limits (-20.0 45.0)
           (-30.0 30.0)
           (-30.0 30.0)
  end
  begin
     id 16
     name head
     direction -0.0226035 0.997615 -0.0652205  
     length 2.3648  
     axis 0 0 0   XYZ
    dof rx ry rz
    limits (-20.0 45.0)
           (-30.0 30.0)
           (-30.0 30.0)
  end
  begin
     id 17 
     name lclavicle
     direction 0.92109 0.381297 -0.0787716  
     length 4.0487  
     axis 0 0 0   XYZ
    dof ry rz
    limits (-20.0 10.0)
           (0.0 20.0)
  end
  begin
     id 18 
     name lhumerus
     direction 1 -4.48986e-011 3.56724e-027   
     length 4.94991   
     axis 180 -30 -90   XYZ
    dof rx ry rz
    limits (-60.0 90.0)
           (-90.0 90.0)
           (-90.0 90.0)
  end
  begin
     id 19
     name lradius
     direction 1 -4.48981e-011 8.62147e-027   
     length 2.7606   
     axis 180 -30 -90   XYZ
    dof rx
    limits (-10.0 170.0)
  end
  begin
     id 20
     name lwrist
     direction 1 -4.48989e-011 1.59799e-026   
     length 1.3803   
     axis -1.17785e-014 90 90   XYZ
    dof ry
    limits (-180.0 0.0)
 end
  begin
     id 21 
     name lhand
     direction 1 -4.48896e-011 3.19599e-026   
     length 0.843936   
     axis -2.03931e-014 90 90   XYZ
    dof rx rz
    limits (-90.0 90.0)
           (-45.0 45.0)
  end
  begin
     id 22 
     name lfingers
     direction 1 -4.48887e-011 6.39197e-026   
     length 0.680403   
     axis -4.07862e-014 90 90   XYZ
    dof rx
    limits (0.0 90.0)
  end
  begin
     id 23
     name lthumb
     direction 0.707107 -6.348e-011 0.707107   
     length 0.976926   
     axis -90 45 2.85299e-015   XYZ
    dof rx rz
    limits (-45.0 45.0)
           (-45.0 45.0)
  end
  begin
     id 24 
     name rclavicle
     direction -0.951104 0.307692 -0.026953   
     length 4.21801  
     axis 0 0 0   XYZ 
    dof ry rz
    limits (-10.0 20.0)
           (-20.0 0.0)
  end
  begin
     id 25 
     name rhumerus
     direction -1 -4.4896e-011 -1.8171e-018  
     length 4.32982   
     axis 180 30 90   XYZ
    dof rx ry rz
    limits (-90.0 60.0)
           (-90.0 90.0)
           (-90.0 90.0)
  end
  begin
     id 26 
     name rradius
     direction -1 -4.48959e-011 8.25165e-027   
     length 3.20057   
     axis 180 30 90   XYZ
    dof rx
    limits (-10.0 170.0)
  end
  begin
     id 27 
     name rwrist
     direction -1 -4.48997e-011 1.59799e-026   
     length 1.60029   
     axis -1.17785e-014 -90 -90   XYZ
    dof ry
    limits (-180.0 0.0)
  end
  begin
     id 28
     name rhand
     direction -1 -4.49023e-011 3.19599e-026   
     length 0.960433   
     axis -2.03931e-014 -90 -90   XYZ
    dof rx rz
    limits (-90.0 90.0)
           (-45.0 45.0)
  end
  begin
     id 29
     name rfingers
     direction -1 -4.48802e-011 6.39197e-026   
     length 0.774326   
     axis -4.07862e-014 -90 -90   XYZ
    dof rx
    limits (0.0 90.0)
  end
  begin
     id 30
     name rthumb
     direction -0.707107 -6.34876e-011 0.707107   
     length 1.11178   
     axis -90 -45 -2.85299e-015   XYZ
    dof rx rz
    limits (-45.0 45.0)
           (-45.0 45.0)
  end
:hierarchy
  begin
    root lhipjoint rhipjoint lowerback
    lhipjoint lfemur
    lfemur ltibia
    ltibia lfoot
    lfoot ltoes
    rhipjoint rfemur
    rfemur rtibia
    rtibia rfoot
    rfoot rtoes
    lowerback upperback
    upperback thorax
    thorax lowerneck lclavicle rclavicle
    lowerneck upperneck
    upperneck head
    lclavicle lhumerus
    lhumerus lradius
    lradius lwrist
    lwrist lhand lthumb
    lhand lfingers
    rclavicle rhumerus
    rhumerus rradius
    rradius rwrist
    rwrist rhand rthumb
    rhand rfingers
end

#!OML:ASF C:\KaitlinTest1\Natural Motions\Nikki\Session 2\Nikki.ASF
:FULLY-SPECIFIED
:DEGREES
532
root -12.2341 16.5168 4.09402 38.3043 91.8105 31.8404
lowerback -9.78493 -1.89669 0.636281
upperback -4.74993 -2.39311 -0.51262
thorax 0.50314 -1.13876 -1.12365
lowerneck -6.863 -11.6295 -9.95243
upperneck 5.82629 41.614 5.41175
head 164.806 62.1927 -39.8194
rclavicle -9.24349e-015 -7.55382e-015
rhumerus -39.8294 -25.1669 -81.0609
rradius 15.2561
rwrist 25.2447
rhand -36.0464 1.5064
rfingers 7.12502
rthumb -9.15458 -28.2749
lclavicle -9.24349e-015 -7.55382e-015
lhumerus -39.8776 21.8374 80.3954
lradius 17.5536
lwrist -35.7635
lhand -32.7138 3.6394
lfingers 7.12502
lthumb -5.93787 33.5362
rfemur -6.70318 -20.8234 20.8691
rtibia 16.5994
rfoot -12.942 9.08737
rtoes -2.62396e-014
lfemur -10.4152 15.9977 -17.285
ltibia 20.2089
lfoot -8.35614 -19.3478
ltoes -3.18055e-015
533
root -12.2378 16.5169 4.09294 38.2262 91.8167 31.7495
lowerback -9.75602 -1.89106 0.648883
upperback -4.76392 -2.3864 -0.50838
thorax 0.472656 -1.13566 -1.12437
lowerneck -6.85884 -11.6916 -9.90881
upperneck 5.80645 41.4807 5.36088
head 164.445 62.3009 -40.0452
rclavicle 8.29926e-015 0
rhumerus -39.8798 -25.2706 -80.9755
rradius 15.2534
rwrist 25.375
rhand -36.1266 1.50732
rfingers 7.12502
rthumb -9.23196 -28.2706
lclavicle 8.29926e-015 0
lhumerus -39.952 21.6983 80.443
lradius 17.787
lwrist -35.8865
lhand -32.7252 3.76123
lfingers 7.12502
lthumb -5.94895 33.6577
rfemur -6.73753 -20.8388 20.8789
rtibia 16.5989
rfoot -12.9377 9.09064
rtoes 4.53229e-014
lfemur -10.4459 16.0237 -17.2973
ltibia 20.2115
lfoot -8.33513 -19.394
ltoes -1.90833e-014
534
root -12.2409 16.518 4.09224 37.6326 91.8404 31.1553
lowerback -9.74258 -1.89693 0.652639
upperback -4.7682 -2.39451 -0.501594
thorax 0.460809 -1.13976 -1.11971
lowerneck -6.82605 -11.6526 -9.9609
upperneck 5.8092 41.5036 5.37645
head 164.647 62.2984 -39.9084
rclavicle -4.96962e-015 -4.37326e-015
rhumerus -39.8992 -25.2039 -80.9788
rradius 15.2729
rwrist 25.3322
rhand -36.1619 1.4433
rfingers 7.12502
rthumb -9.266 -28.3331
lclavicle -4.96962e-015 -4.37326e-015
lhumerus -39.9241 21.5285 80.5414
lradius 17.8501
lwrist -35.757
lhand -33.0022 3.69649
lfingers 7.12502
lthumb -6.21631 33.5853
rfemur -6.7481 -20.8543 20.8798
rtibia 16.5948
rfoot -12.9125 9.07397
rtoes 1.19271e-014
lfemur -10.4747 16.0458 -17.3066
ltibia 20.2162
lfoot -8.29537 -19.439
ltoes -2.06736e-014
535
root -12.2434 16.5183 4.09143 37.0533 91.8641 30.5802
lowerback -9.73606 -1.89647 0.659416
upperback -4.75719 -2.39512 -0.496027
thorax 0.468609 -1.14027 -1.11782
lowerneck -6.83818 -11.648 -9.98356
upperneck 5.81884 41.5633 5.38784
head 164.746 62.2177 -39.8457
rclavicle -1.50579e-014 -1.19271e-015
rhumerus -39.9027 -25.2653 -80.9193
rradius 15.2748
rwrist 25.354
rhand -36.1327 1.3875
rfingers 7.12502
rthumb -9.23783 -28.3901
lclavicle -1.50579e-014 -1.19271e-015
lhumerus -39.8219 21.4546 80.5984
lradius 17.7711
lwrist -35.7411
lhand -33.2692 3.62838
lfingers 7.12502
lthumb -6.47415 33.5094
rfemur -6.75399 -20.8599 20.8775
rtibia 16.6034
rfoot -12.9275 9.04289
rtoes 0
lfemur -10.4887 16.0467 -17.3131
ltibia 20.2166
lfoot -8.2772 -19.4736
ltoes 2.54444e-014
